:SAMPLES-PER-SECOND 30
:FULLY-SPECIFIED
:DEGREES
59
root  31.9547 38.4848 -3.11771 -18.0558 -58.9173 14.1752
RightUpLeg  -8.87819 -0.344369 -22.1108
RightLeg  45.7743 -0.207973 -0.560134
RightFoot  1.27844 -1.11757 10.154
RightToes  -5.8209e-011 0 -3.6325e-017
Spine  10.5538 -2.71983 -9.11669
Spine1  1.81706 -4.06866 -1.76205
HEad  9.49987 1.19723 -5.57069
LeftShoulder1  0.135614 2.24059 -2.55394
LeftArm  -25.1604 4.28154 -18.293
LeftForeArm  2.17775 -12.2976 1.26477
LeftHand  -0.000469192 5.86891 5.9935
RightShoulder  -0.0541993 -3.95705 3.66494
RightArm  -11.8271 -11.5981 3.18035
RightForeArm  1.3894 16.9651 0.6857
RightHand  -0.256611 4.05519 -3.42475
LeftUpLeg  -2.37688 6.08578 -8.06299
LeftLeg  17.1915 13.9243 1.25351
LeftFoot  -10.5077 0.0327468 4.17948
LeftToes  8.00323e-011 7.86695e-011 -1.03868e-010
60
root  31.7579 38.4891 -2.55355 -16.6916 -57.6968 12.7506
RightUpLeg  -11.9155 1.36728 -19.7747
RightLeg  47.9074 0.921872 0.752461
RightFoot  0.398545 -0.976214 9.50351
RightToes  -5.8209e-011 0 -3.6325e-017
Spine  10.9526 -2.8862 -10.5019
Spine1  1.71602 -4.74005 0.194488
HEad  9.93721 2.07577 -5.75565
LeftShoulder1  0.150033 2.11619 -2.68917
LeftArm  -24.3733 2.00573 -19.1159
LeftForeArm  -0.345655 -10.0101 1.75531
LeftHand  0.00888625 6.0652 5.98831
RightShoulder  -0.0592014 -4.0152 3.28498
RightArm  -11.1982 -10.3488 3.32116
RightForeArm  5.15332 17.8156 1.32226
RightHand  -0.284755 3.94952 -3.80416
LeftUpLeg  -1.6293 5.78779 -8.32016
LeftLeg  17.0577 13.0167 1.17658
LeftFoot  -11.3202 0.0672422 4.60193
LeftToes  8.00323e-011 7.86695e-011 -1.03868e-010
61
root  31.5267 38.521 -1.97961 -15.329 -56.6553 11.2052
RightUpLeg  -14.3931 3.14271 -17.0124
RightLeg  47.8753 -0.149142 -0.490788
RightFoot  -0.839838 -0.82565 8.89312
RightToes  -5.8209e-011 0 -3.6325e-017
Spine  11.1648 -3.11556 -11.2734
Spine1  1.97547 -5.28227 1.67215
HEad  9.62474 2.53939 -5.54794
LeftShoulder1  0.174302 1.86381 -2.46591
LeftArm  -24.7628 0.462721 -20.376
LeftForeArm  -0.829621 -8.86425 2.0875
LeftHand  0.0368774 6.6545 6.00726
RightShoulder  -0.0619504 -4.04433 3.17046
RightArm  -11.085 -8.86406 4.16802
RightForeArm  5.71279 17.4115 1.08845
RightHand  -0.288203 4.15616 -3.77711
LeftUpLeg  -0.582067 5.87156 -8.22648
LeftLeg  16.6604 11.9296 0.896168
LeftFoot  -12.0322 0.10269 5.03022
LeftToes  8.00323e-011 7.86695e-011 -1.03868e-010
62
root  31.2769 38.5654 -1.36537 -13.7661 -55.4942 9.77116
RightUpLeg  -16.639 4.19188 -14.4187
RightLeg  45.6982 -1.40707 -1.84365
RightFoot  -1.96528 -0.660328 7.895
RightToes  -5.8209e-011 0 -3.6325e-017
Spine  11.3416 -3.49814 -11.5728
Spine1  1.8559 -5.80316 2.93464
HEad  9.42194 1.99246 -5.31436
LeftShoulder1  0.173277 1.93868 -2.97142
LeftArm  -25.0929 -1.36624 -21.3494
LeftForeArm  -1.06123 -8.39234 2.19634
LeftHand  0.0234135 6.26823 6.61084
RightShoulder  -0.049093 -3.92967 3.1857
RightArm  -11.8535 -8.30657 5.24332
RightForeArm  3.74326 17.3884 1.13261
RightHand  -0.280483 4.1482 -3.6818
LeftUpLeg  0.349275 5.72373 -8.28809
LeftLeg  15.9419 10.9013 0.688053
LeftFoot  -12.5879 0.135414 5.48217
LeftToes  8.00323e-011 7.86695e-011 -1.03868e-010
63
root  30.9953 38.5868 -0.746042 -12.4099 -54.4004 8.55099
RightUpLeg  -18.2159 5.42266 -11.9134
RightLeg  41.2915 -1.94719 -2.11477
RightFoot  -3.39082 -0.588066 8.10995
RightToes  -5.8209e-011 0 -3.6325e-017
Spine  11.2081 -3.81021 -11.3413
Spine1  2.22554 -6.0248 3.25598
HEad  8.94636 1.65987 -4.77509
LeftShoulder1  0.201552 1.6965 -3.03441
LeftArm  -25.6027 -2.71553 -23.1206
LeftForeArm  -1.22504 -9.1829 2.17423
LeftHand  0.00342518 5.76929 8.03225
RightShoulder  -0.0680838 -4.07509 3.6544
RightArm  -13.6317 -8.69051 6.75942
RightForeArm  0.766614 18.3424 1.86505
RightHand  -0.357642 4.1188 -4.64354
LeftUpLeg  1.27688 5.67983 -8.28929
LeftLeg  15.4085 9.83175 0.475711
LeftFoot  -13.2264 0.175358 5.81999
LeftToes  8.00323e-011 7.86695e-011 -1.03868e-010
64
root  30.6548 38.5918 -0.0972476 -11.5493 -53.3672 7.70422
RightUpLeg  -18.9042 6.53515 -9.5176
RightLeg  34.9463 -1.44975 -1.35212
RightFoot  -4.19142 -0.517582 7.81031
RightToes  -5.8209e-011 0 -3.6325e-017
Spine  11.3866 -3.9669 -11.2689
Spine1  2.23032 -6.15569 3.74985
HEad  8.52926 1.24212 -3.87944
LeftShoulder1  0.271964 1.25844 -4.13682
LeftArm  -26.2463 -3.31088 -24.4508
LeftForeArm  0.269845 -11.6448 1.48754
LeftHand  -0.0058684 5.54337 9.4074
RightShoulder  -0.0778619 -4.10762 4.76497
RightArm  -16.0447 -9.79707 8.19891
RightForeArm  0.255264 20.3979 3.29221
RightHand  -0.411572 3.86761 -5.41305
LeftUpLeg  2.63086 5.75099 -8.35306
LeftLeg  14.6406 9.00565 0.219979
LeftFoot  -13.8469 0.216882 6.10537
LeftToes  8.00323e-011 7.86695e-011 -1.03868e-010
65
root  30.2607 38.5422 0.597466 -10.9114 -52.474 7.41778
RightUpLeg  -19.3785 6.57 -7.42653
RightLeg  27.5341 -0.125627 -0.293228
RightFoot  -4.84195 -0.48181 7.90457
RightToes  -5.8209e-011 0 -3.6325e-017
Spine  11.2205 -4.1372 -11.308
Spine1  2.27008 -6.2427 4.04912
HEad  8.37416 -0.0160834 -3.13088
LeftShoulder1  0.318027 1.18582 -5.99305
LeftArm  -28.0782 -3.72179 -25.7578
LeftForeArm  5.55081 -14.8205 0.263462
LeftHand  -0.0557791 4.8889 8.58145
RightShoulder  -0.0817852 -4.07389 6.19288
RightArm  -17.0238 -11.5843 9.97363
RightForeArm  2.19336 23.6941 4.95029
RightHand  -0.472361 4.17057 -6.01124
LeftUpLeg  3.80982 5.64181 -8.79991
LeftLeg  13.945 8.41164 0.0809437
LeftFoot  -14.559 0.270726 6.50384
LeftToes  8.00323e-011 7.86695e-011 -1.03868e-010
66
root  29.8349 38.481 1.3341 -10.5962 -51.3709 7.45618
RightUpLeg  -19.2213 4.71806 -5.34806
RightLeg  19.7176 0.996078 0.180276
RightFoot  -5.31032 -0.514988 9.06436
RightToes  -5.8209e-011 0 -3.6325e-017
Spine  10.9149 -4.40762 -11.3726
Spine1  2.66093 -6.45817 4.29266
HEad  8.02574 -1.51829 -2.27109
LeftShoulder1  0.331254 1.39035 -8.12353
LeftArm  -28.77 -4.24968 -27.3769
LeftForeArm  10.378 -17.7494 -1.56383
LeftHand  -0.0862362 4.50855 9.32951
RightShoulder  -0.124679 -4.28457 8.02241
RightArm  -16.4086 -13.3603 12.5298
RightForeArm  5.13714 27.6821 5.71079
RightHand  -0.465014 3.40532 -6.37919
LeftUpLeg  5.31963 5.43752 -9.46239
LeftLeg  12.9439 7.70666 -0.120393
LeftFoot  -15.1703 0.331262 7.17951
LeftToes  8.00323e-011 7.86695e-011 -1.03868e-010
67
root  29.3572 38.3894 2.12074 -10.3067 -50.2732 7.60573
RightUpLeg  -19.0168 0.21322 -2.6902
RightLeg  12.8095 1.73891 0.273708
RightFoot  -5.49135 -0.512431 9.27609
RightToes  -5.8209e-011 0 -3.6325e-017
Spine  10.3319 -4.64569 -11.1493
Spine1  3.24067 -6.55902 4.10399
HEad  7.44218 -2.82685 -1.65138
LeftShoulder1  0.356021 1.43492 -9.85803
LeftArm  -27.7785 -4.5925 -29.8676
LeftForeArm  15.1499 -19.9112 -2.80452
LeftHand  -0.152709 3.60388 9.08016
RightShoulder  -0.179497 -4.51834 10.0673
RightArm  -15.1175 -15.4905 15.5842
RightForeArm  8.73679 31.2499 6.36769
RightHand  -0.431674 3.07909 -6.15193
LeftUpLeg  6.88452 5.19014 -10.1544
LeftLeg  12.0144 7.1049 -0.271558
LeftFoot  -16.0946 0.394948 7.1736
LeftToes  8.00323e-011 7.86695e-011 -1.03868e-010
68
root  28.8204 38.2684 2.95831 -10.2828 -49.2105 7.90588
RightUpLeg  -18.6475 -5.11095 -0.203157
RightLeg  7.55444 0.581528 0.884284
RightFoot  -5.04193 -0.531516 9.01426
RightToes  -5.8209e-011 0 -3.6325e-017
Spine  9.66794 -4.82306 -11.1444
Spine1  4.11996 -6.77363 4.40593
HEad  6.08879 -3.98307 -0.942296
LeftShoulder1  0.363371 1.59332 -11.8658
LeftArm  -24.2041 -5.29641 -32.5269
LeftForeArm  19.2907 -20.2904 -3.03575
LeftHand  -0.110697 3.92231 7.56932
RightShoulder  -0.241161 -4.73983 11.8956
RightArm  -14.8189 -17.4488 19.4449
RightForeArm  13.8269 33.7496 6.71653
RightHand  -0.326604 3.43603 -4.53337
LeftUpLeg  8.79922 5.03497 -10.8347
LeftLeg  10.9775 6.53961 -0.513623
LeftFoot  -16.8609 0.457409 7.36609
LeftToes  8.00323e-011 7.86695e-011 -1.03868e-010
